#!OML:ASF F:\VICON\USERDATA\INSTALL\rory3\rory3.ASF
:FULLY-SPECIFIED
:DEGREES
143
root 5.89455 17.5244 3.0573 158.288 -105.977 -155.717
lowerback 38.1425 1.55969 1.77169
upperback 7.50959 2.54141 5.87189
thorax -10.6521 0.742315 4.40781
lowerneck -10.9588 -3.13864 -4.17541
upperneck -1.07132 -3.72959 -3.96911
head 1.51385 -2.03011 -0.716139
rclavicle 2.70347e-014 -6.04305e-014
rhumerus -21.983 11.9116 -72.2666
rradius 102.019
rwrist 42.0875
rhand -24.5826 6.94508
rfingers 7.12502
rthumb 1.91467 -23.0261
lclavicle 2.70347e-014 -6.04305e-014
lhumerus -47.396 9.67278 81.2059
lradius 55.0664
lwrist 7.74702
lhand -12.9055 50.661
lfingers 7.12502
lthumb 13.1843 80.2241
rfemur -22.1716 0.887678 14.4323
rtibia 54.5984
rfoot -23.042 -11.7875
rtoes -5.37382
lfemur -27.6899 -3.21691 -2.29929
ltibia 42.5934
lfoot 2.38549 1.03079
ltoes -16.8625
144
root 5.94928 17.4735 3.27988 159.091 -106.864 -156.396
lowerback 38.0643 1.00421 2.33722
upperback 7.44427 2.07495 5.84969
thorax -10.6359 0.522804 4.28011
lowerneck -11.1355 -3.01788 -4.04826
upperneck -1.34961 -3.59199 -4.1645
head 1.4479 -1.96492 -0.792277
rclavicle -3.18055e-014 -8.5875e-014
rhumerus -21.0633 12.5408 -72.6155
rradius 98.5971
rwrist 41.9393
rhand -25.5639 7.44141
rfingers 7.12502
rthumb 0.966937 -22.5361
lclavicle -3.18055e-014 -8.5875e-014
lhumerus -47.1168 10.2595 81.4874
lradius 54.9374
lwrist 7.40967
lhand -12.129 51.4904
lfingers 7.12502
lthumb 13.9327 81.0036
rfemur -22.4538 -0.427557 13.4235
rtibia 55.0532
rfoot -23.0424 -12.4023
rtoes -10.1503
lfemur -28.1198 -4.89032 -1.49438
ltibia 41.9182
lfoot 3.13468 2.569
ltoes -14.2295
145
root 5.99095 17.4251 3.47454 158.091 -106.959 -155.554
lowerback 38.3627 1.09441 1.94248
upperback 7.49683 2.04981 5.98685
thorax -10.7078 0.51262 4.64941
lowerneck -11.4016 -2.88761 -4.07578
upperneck -1.47749 -3.40989 -4.40125
head 1.44972 -1.88377 -0.857696
rclavicle -3.18055e-014 -1.59028e-015
rhumerus -19.9172 12.9271 -72.8417
rradius 94.8921
rwrist 41.7498
rhand -26.3146 8.52265
rfingers 7.12502
rthumb 0.241873 -21.457
lclavicle -3.18055e-014 -1.59028e-015
lhumerus -46.7511 10.9113 81.8553
lradius 54.6111
lwrist 6.7646
lhand -12.7456 51.7701
lfingers 7.12502
lthumb 13.3385 81.3232
rfemur -22.3659 -0.772505 12.4359
rtibia 55.3481
rfoot -22.9879 -13.2415
rtoes -15.0106
lfemur -27.6673 -5.73226 -0.880109
ltibia 41.2158
lfoot 3.52193 4.26881
ltoes -13.0311
146
root 6.02467 17.3813 3.6767 156.837 -106.736 -154.632
lowerback 38.6701 1.38376 1.70153
upperback 7.66316 2.31205 6.14652
thorax -10.6679 0.622552 4.84024
lowerneck -11.2249 -3.01414 -4.43549
upperneck -1.95881 -3.58217 -4.19838
head 1.26898 -1.95239 -0.730666
rclavicle 4.29375e-014 3.18055e-015
rhumerus -18.7885 12.8368 -72.781
rradius 91.101
rwrist 41.4165
rhand -26.8983 9.11068
rfingers 7.12502
rthumb -0.321876 -20.8688
lclavicle 4.29375e-014 3.18055e-015
lhumerus -46.2087 10.5948 82.6627
lradius 54.2556
lwrist 6.0843
lhand -13.6914 51.4772
lfingers 7.12502
lthumb 12.4267 81.0878
rfemur -21.9991 -0.836786 11.4854
rtibia 55.5161
rfoot -23.264 -13.4678
rtoes -17.051
lfemur -26.8482 -6.33492 -0.255846
ltibia 40.5997
lfoot 3.42011 5.93332
ltoes -12.5246
147
root 6.06669 17.3336 3.88818 156.354 -106.485 -154.448
lowerback 38.8548 1.48896 1.75149
upperback 7.87853 2.43791 6.26352
thorax -10.502 0.661922 4.88736
lowerneck -11.3376 -2.92233 -4.18953
upperneck -2.28472 -3.50801 -4.52472
head 1.17268 -1.92108 -0.868779
rclavicle 2.22639e-014 9.54166e-015
rhumerus -17.4507 12.6188 -72.7395
rradius 87.1699
rwrist 41.2285
rhand -27.2175 10.3479
rfingers 7.12502
rthumb -0.630184 -19.6309
lclavicle 2.22639e-014 9.54166e-015
lhumerus -45.5664 10.3653 83.3318
lradius 53.8888
lwrist 5.39892
lhand -13.9795 51.2458
lfingers 7.12502
lthumb 12.1489 80.8731
rfemur -21.649 -0.652405 10.7221
rtibia 55.5555
rfoot -23.6733 -13.5661
rtoes -17.6496
lfemur -26.1754 -6.67058 0.511842
ltibia 39.9899
lfoot 3.46018 7.34516
ltoes -12.0837
148
root 6.10987 17.2851 4.09703 155.658 -106.341 -153.833
lowerback 38.9132 1.48012 1.4182
upperback 8.14556 2.2436 6.21664
thorax -10.2179 0.56436 5.09189
lowerneck -9.69054 -2.83693 -5.71939
upperneck -4.84605 -3.45458 -1.9456
head 0.149138 -1.75533 0.237692
rclavicle 1.11319e-014 -4.77083e-014
rhumerus -15.628 12.7345 -73.1045
rradius 83.035
rwrist 41.0464
rhand -27.0593 11.6929
rfingers 7.12502
rthumb -0.47736 -18.2864
lclavicle 1.11319e-014 -4.77083e-014
lhumerus -44.762 10.4362 83.5404
lradius 53.5458
lwrist 5.07836
lhand -14.6256 51.2718
lfingers 7.12502
lthumb 11.5258 80.9349
rfemur -21.5014 -0.464387 9.82689
rtibia 55.5334
rfoot -24.0475 -13.91
rtoes -18.0896
lfemur -25.7537 -6.99062 1.08952
ltibia 39.4354
lfoot 3.62371 8.95906
ltoes -9.26591
149
root 6.14784 17.2411 4.30703 155.248 -106.139 -153.411
lowerback 38.8965 1.5776 1.50731
upperback 8.26324 2.37156 6.16211
thorax -10.0803 0.615542 4.93063
lowerneck -11.8931 -2.5791 -3.17937
upperneck -3.08208 -3.20873 -5.02253
head 0.990277 -1.78441 -1.18224
rclavicle -6.36111e-015 4.77083e-015
rhumerus -14.3282 12.2624 -73.1957
rradius 78.9694
rwrist 41.0026
rhand -26.9939 12.4079
rfingers 7.12502
rthumb -0.414168 -17.5715
lclavicle -6.36111e-015 4.77083e-015
lhumerus -44.1259 9.63625 84.1114
lradius 53.2365
lwrist 4.46616
lhand -15.4538 50.9349
lfingers 7.12502
lthumb 10.7271 80.6411
rfemur -21.4411 -0.377649 8.98
rtibia 55.4335
rfoot -24.7245 -13.7748
rtoes -16.5581
lfemur -25.4402 -7.39099 1.68738
ltibia 38.9891
lfoot 3.91989 10.4961
ltoes -7.88348
